<svg xmlns="http://www.w3.org/2000/svg" xmlns:xlink="http://www.w3.org/1999/xlink" width="1324" height="512" viewBox="0 0 1324 512">
  <defs>
    <clipPath id="clip-path">
      <rect id="Rectángulo_280248" data-name="Rectángulo 280248" width="1324" height="512" rx="18" transform="translate(140 70)" fill="#53407e"/>
    </clipPath>
    <clipPath id="clip-path-2">
      <rect id="Rectángulo_280300" data-name="Rectángulo 280300" width="1387.924" height="512" fill="none"/>
    </clipPath>
    <clipPath id="clip-path-3">
      <rect id="Rectángulo_280297" data-name="Rectángulo 280297" width="583.669" height="293.863" fill="none"/>
    </clipPath>
    <clipPath id="clip-path-4">
      <rect id="Rectángulo_280299" data-name="Rectángulo 280299" width="550.743" height="412.831" fill="#fff"/>
    </clipPath>
    <clipPath id="clip-path-5">
      <path id="Trazado_582252" data-name="Trazado 582252" d="M394.323,135.6c0,153.108,123.277,277.229,275.349,277.229,152.113,0,275.394-124.12,275.394-277.229A277.11,277.11,0,0,0,909.929,0H429.46a277.549,277.549,0,0,0-35.137,135.6" transform="translate(-394.323)" fill="#fff"/>
    </clipPath>
    <clipPath id="clip-path-6">
      <path id="Trazado_582480" data-name="Trazado 582480" d="M37.219,37.353a69.949,69.949,0,0,0,0,98.459,68.827,68.827,0,0,0,97.792,0,69.96,69.96,0,0,0,0-98.459,68.823,68.823,0,0,0-97.792,0" transform="translate(-16.963 -16.963)" fill="none"/>
    </clipPath>
    <clipPath id="clip-path-7">
      <rect id="Rectángulo_280571" data-name="Rectángulo 280571" width="233.45" height="73.468" fill="none"/>
    </clipPath>
    <clipPath id="clip-path-8">
      <path id="Trazado_582582" data-name="Trazado 582582" d="M0,0H1228.923V451.095H0Z" fill="none"/>
    </clipPath>
  </defs>
  <g id="Enmascarar_grupo_700207" data-name="Enmascarar grupo 700207" transform="translate(-140 -70)" clip-path="url(#clip-path)">
    <g id="Grupo_844370" data-name="Grupo 844370" transform="translate(85.229 -497.118)">
      <g id="Grupo_844371" data-name="Grupo 844371">
        <path id="Trazado_1085441" data-name="Trazado 1085441" d="M0,0H1435.61V607.2H0Z" transform="translate(0 567.118)" fill="#f5f7fd"/>
        <path id="Trazado_1085444" data-name="Trazado 1085444" d="M355.386,0C551.66,0,710.771,160.2,710.771,357.806S551.66,715.612,355.386,715.612,0,555.417,0,357.806,159.112,0,355.386,0Z" transform="translate(164.643 946.377)" fill="#9ab3eb" opacity="0.23" style="mix-blend-mode: multiply;isolation: isolate"/>
        <path id="Trazado_1085796" data-name="Trazado 1085796" d="M355.386,0C551.66,0,710.771,160.2,710.771,357.806S551.66,715.612,355.386,715.612,0,555.417,0,357.806,159.112,0,355.386,0Z" transform="translate(362.419 69)" fill="#9ab3eb" opacity="0.23" style="mix-blend-mode: multiply;isolation: isolate"/>
        <g id="Grupo_844368" data-name="Grupo 844368" transform="translate(22.809 567.118)">
          <g id="Grupo_844367" data-name="Grupo 844367" clip-path="url(#clip-path-2)">
            <g id="Grupo_844361" data-name="Grupo 844361" transform="translate(471.192 -132.259)" opacity="0.2">
              <g id="Grupo_844360" data-name="Grupo 844360" transform="translate(240.77 129.089)">
                <g id="Grupo_844359" data-name="Grupo 844359" transform="translate(0 0)" clip-path="url(#clip-path-3)">
                  <path id="Trazado_582250" data-name="Trazado 582250" d="M234.422,0c0,162.282,130.645,293.863,291.836,293.863S818.091,162.282,818.091,0H724.914c0,110.449-88.952,200.007-198.656,200.007C416.515,200.007,327.6,110.449,327.6,0Z" transform="translate(-234.422)" fill="#12263f" opacity="0.428"/>
                </g>
              </g>
              <ellipse id="Elipse_7348" data-name="Elipse 7348" cx="249" cy="250" rx="249" ry="250" transform="translate(503.77 4.259)" fill="#fff" opacity="0.749"/>
            </g>
            <path id="Trazado_582251" data-name="Trazado 582251" d="M28.049,148.256v50.282c57.945,0,105.091,46.605,106.478,104.633h49.967c-1.383-85.818-70.9-154.915-156.445-154.915" transform="translate(-17.835 228.829)" fill="#d2e1f1"/>
            <path id="Trazado_582254" data-name="Trazado 582254" d="M0,0V105.277c43.45,16.34,94.691,6.672,128.943-28.587A121.471,121.471,0,0,0,163.037,0Z" transform="translate(23.621)" fill="#d2e1f1" opacity="0.359"/>
          </g>
        </g>
      </g>
    </g>
    <g id="Grupo_845097" data-name="Grupo 845097" transform="translate(873.74 150.381)">
      <g id="Grupo_845097-2" data-name="Grupo 845097" transform="translate(20 -30)" clip-path="url(#clip-path-6)">
        <path id="Trazado_1288408" data-name="Trazado 1288408" d="M.006.366,151.573-.148l-.01,2.819L0,3.185Z" transform="translate(62.39 170.363) rotate(-45)" fill="#fff"/>
        <path id="Trazado_582478" data-name="Trazado 582478" d="M46.134,153.673l1.992,2L154.938,48.134l-1.992-2Z" transform="translate(10.88 11.268)" fill="#fff"/>
        <path id="Trazado_1288409" data-name="Trazado 1288409" d="M.006.366,151.571-.148l-.01,2.822L0,3.188Z" transform="translate(51.119 159.012) rotate(-45)" fill="#fff"/>
        <path id="Trazado_1288410" data-name="Trazado 1288410" d="M.006.366,151.576-.148l-.01,2.821L0,3.188Z" transform="translate(45.43 153.287) rotate(-44.944)" fill="#fff"/>
        <path id="Trazado_1288411" data-name="Trazado 1288411" d="M.006.366,151.574-.148l-.01,2.823L0,3.19Z" transform="translate(39.795 147.611) rotate(-44.944)" fill="#fff"/>
        <path id="Trazado_1288412" data-name="Trazado 1288412" d="M.006.366,151.575-.148l-.01,2.82L0,3.186Z" transform="matrix(0.707, -0.707, 0.707, 0.707, 34.238, 142.019)" fill="#fff"/>
        <path id="Trazado_1288413" data-name="Trazado 1288413" d="M.006.366,151.581-.148l-.01,2.821L0,3.187Z" transform="matrix(0.706, -0.708, 0.708, 0.706, 28.625, 136.374)" fill="#fff"/>
        <path id="Trazado_1288414" data-name="Trazado 1288414" d="M.006.366,151.573-.148l-.01,2.824L0,3.19Z" transform="translate(22.94 130.642) rotate(-45)" fill="#fff"/>
        <path id="Trazado_1288415" data-name="Trazado 1288415" d="M.006.366,151.573-.148l-.01,2.823L0,3.19Z" transform="matrix(0.707, -0.707, 0.707, 0.707, 17.279, 124.943)" fill="#fff"/>
        <path id="Trazado_1288416" data-name="Trazado 1288416" d="M.006.366,151.577-.148l-.01,2.821L0,3.187Z" transform="matrix(0.707, -0.707, 0.707, 0.707, 11.695, 119.324)" fill="#fff"/>
        <path id="Trazado_1288417" data-name="Trazado 1288417" d="M.006.366,151.573-.148l-.01,2.821L0,3.187Z" transform="matrix(0.707, -0.707, 0.707, 0.707, 6.061, 113.649)" fill="#fff"/>
        <path id="Trazado_1288418" data-name="Trazado 1288418" d="M.006.366,151.579-.148l-.01,2.824L0,3.19Z" transform="matrix(0.706, -0.708, 0.708, 0.706, 0.447, 108.003)" fill="#fff"/>
        <path id="Trazado_582479" data-name="Trazado 582479" d="M14.417,121.955l1.992,2L123.221,16.417l-1.992-2Z" transform="translate(-19.393 -19.426)" fill="#fff"/>
        <path id="Trazado_1288419" data-name="Trazado 1288419" d="M.006.366,151.571-.148l-.01,2.823L0,3.189Z" transform="translate(-10.872 96.6) rotate(-45)" fill="#fff"/>
        <path id="Trazado_1288420" data-name="Trazado 1288420" d="M.006.366,151.575-.148l-.01,2.82L0,3.186Z" transform="translate(-16.586 90.849) rotate(-44.916)" fill="#fff"/>
        <path id="Trazado_1288421" data-name="Trazado 1288421" d="M.006.366,151.574-.148l-.01,2.823L0,3.19Z" transform="matrix(0.708, -0.706, 0.706, 0.708, -22.195, 85.199)" fill="#fff"/>
        <path id="Trazado_1288422" data-name="Trazado 1288422" d="M.006.366l151.57-.514-.01,2.821L0,3.187Z" transform="translate(-27.728 79.634) rotate(-45.056)" fill="#fff"/>
        <path id="Trazado_1288423" data-name="Trazado 1288423" d="M.006.366l151.57-.514-.01,2.824L0,3.19Z" transform="translate(-33.416 73.905) rotate(-45)" fill="#fff"/>
      </g>
    </g>
    <g id="Grupo_845101" data-name="Grupo 845101" transform="translate(1122.222 252.883)">
      <g id="Grupo_845100" data-name="Grupo 845100" transform="translate(0 0)" clip-path="url(#clip-path-7)">
        <path id="Trazado_582543" data-name="Trazado 582543" d="M3.283,32.659A3.3,3.3,0,1,0,0,29.354a3.29,3.29,0,0,0,3.283,3.305" transform="translate(0 40.809)" fill="#fff"/>
        <path id="Trazado_582544" data-name="Trazado 582544" d="M16,32.659a3.3,3.3,0,1,0-3.278-3.305A3.29,3.29,0,0,0,16,32.659" transform="translate(19.698 40.809)" fill="#fff"/>
        <path id="Trazado_582545" data-name="Trazado 582545" d="M28.717,32.659a3.3,3.3,0,1,0-3.283-3.3,3.29,3.29,0,0,0,3.283,3.3" transform="translate(39.393 40.809)" fill="#fff"/>
        <path id="Trazado_582546" data-name="Trazado 582546" d="M41.43,32.659a3.3,3.3,0,1,0-3.28-3.3,3.29,3.29,0,0,0,3.28,3.3" transform="translate(59.088 40.809)" fill="#fff"/>
        <path id="Trazado_582547" data-name="Trazado 582547" d="M54.145,32.659a3.3,3.3,0,1,0-3.278-3.305,3.292,3.292,0,0,0,3.278,3.305" transform="translate(78.785 40.809)" fill="#fff"/>
        <path id="Trazado_582548" data-name="Trazado 582548" d="M66.867,32.659a3.3,3.3,0,1,0-3.283-3.305,3.29,3.29,0,0,0,3.283,3.305" transform="translate(98.481 40.809)" fill="#fff"/>
        <path id="Trazado_582549" data-name="Trazado 582549" d="M79.584,32.659A3.3,3.3,0,1,0,76.3,29.354a3.288,3.288,0,0,0,3.285,3.305" transform="translate(118.175 40.809)" fill="#fff"/>
        <path id="Trazado_582550" data-name="Trazado 582550" d="M92.295,32.659a3.3,3.3,0,1,0-3.278-3.305,3.291,3.291,0,0,0,3.278,3.305" transform="translate(137.873 40.809)" fill="#fff"/>
        <path id="Trazado_582551" data-name="Trazado 582551" d="M3.283,20.176A3.305,3.305,0,1,0,0,16.87a3.295,3.295,0,0,0,3.283,3.305" transform="translate(0 21.246)" fill="#fff"/>
        <path id="Trazado_582552" data-name="Trazado 582552" d="M16,20.176a3.305,3.305,0,1,0-3.278-3.305A3.295,3.295,0,0,0,16,20.176" transform="translate(19.698 21.246)" fill="#fff"/>
        <path id="Trazado_582553" data-name="Trazado 582553" d="M28.717,20.176a3.305,3.305,0,1,0-3.283-3.305,3.3,3.3,0,0,0,3.283,3.305" transform="translate(39.393 21.246)" fill="#fff"/>
        <path id="Trazado_582554" data-name="Trazado 582554" d="M41.43,20.176a3.305,3.305,0,1,0-3.28-3.305,3.3,3.3,0,0,0,3.28,3.305" transform="translate(59.088 21.246)" fill="#fff"/>
        <path id="Trazado_582555" data-name="Trazado 582555" d="M54.145,20.176a3.305,3.305,0,1,0-3.278-3.305,3.3,3.3,0,0,0,3.278,3.305" transform="translate(78.785 21.246)" fill="#fff"/>
        <path id="Trazado_582556" data-name="Trazado 582556" d="M66.867,20.176a3.305,3.305,0,1,0-3.283-3.305,3.295,3.295,0,0,0,3.283,3.305" transform="translate(98.481 21.246)" fill="#fff"/>
        <path id="Trazado_582557" data-name="Trazado 582557" d="M79.584,20.176A3.305,3.305,0,1,0,76.3,16.87a3.293,3.293,0,0,0,3.285,3.305" transform="translate(118.175 21.246)" fill="#fff"/>
        <path id="Trazado_582558" data-name="Trazado 582558" d="M92.295,20.176a3.305,3.305,0,1,0-3.278-3.305,3.3,3.3,0,0,0,3.278,3.305" transform="translate(137.873 21.246)" fill="#fff"/>
        <path id="Trazado_582559" data-name="Trazado 582559" d="M9.642,26.413a3.3,3.3,0,1,0-3.283-3.3,3.289,3.289,0,0,0,3.283,3.3" transform="translate(9.849 31.027)" fill="#fff"/>
        <path id="Trazado_582560" data-name="Trazado 582560" d="M22.358,26.413a3.3,3.3,0,1,0-3.283-3.3,3.289,3.289,0,0,0,3.283,3.3" transform="translate(29.544 31.027)" fill="#fff"/>
        <path id="Trazado_582561" data-name="Trazado 582561" d="M35.071,26.413a3.3,3.3,0,1,0-3.278-3.3,3.289,3.289,0,0,0,3.278,3.3" transform="translate(49.242 31.027)" fill="#fff"/>
        <path id="Trazado_582562" data-name="Trazado 582562" d="M47.789,26.413a3.3,3.3,0,1,0-3.28-3.3,3.289,3.289,0,0,0,3.28,3.3" transform="translate(68.937 31.027)" fill="#fff"/>
        <path id="Trazado_582563" data-name="Trazado 582563" d="M60.505,26.413a3.3,3.3,0,1,0-3.28-3.3,3.289,3.289,0,0,0,3.28,3.3" transform="translate(88.632 31.027)" fill="#fff"/>
        <path id="Trazado_582564" data-name="Trazado 582564" d="M73.22,26.413a3.3,3.3,0,1,0-3.278-3.3,3.289,3.289,0,0,0,3.278,3.3" transform="translate(108.329 31.027)" fill="#fff"/>
        <path id="Trazado_582565" data-name="Trazado 582565" d="M85.941,26.413a3.3,3.3,0,1,0-3.283-3.3,3.289,3.289,0,0,0,3.283,3.3" transform="translate(128.024 31.027)" fill="#fff"/>
        <path id="Trazado_582566" data-name="Trazado 582566" d="M9.642,13.931a3.305,3.305,0,1,0-3.283-3.305,3.3,3.3,0,0,0,3.283,3.305" transform="translate(9.849 11.465)" fill="#fff"/>
        <path id="Trazado_582567" data-name="Trazado 582567" d="M22.358,13.931a3.305,3.305,0,1,0-3.283-3.305,3.3,3.3,0,0,0,3.283,3.305" transform="translate(29.544 11.465)" fill="#fff"/>
        <path id="Trazado_582568" data-name="Trazado 582568" d="M35.071,13.931a3.305,3.305,0,1,0-3.278-3.305,3.3,3.3,0,0,0,3.278,3.305" transform="translate(49.242 11.465)" fill="#fff"/>
        <path id="Trazado_582569" data-name="Trazado 582569" d="M47.789,13.931a3.305,3.305,0,1,0-3.28-3.305,3.3,3.3,0,0,0,3.28,3.305" transform="translate(68.937 11.465)" fill="#fff"/>
        <path id="Trazado_582570" data-name="Trazado 582570" d="M60.505,13.931a3.305,3.305,0,1,0-3.28-3.305,3.3,3.3,0,0,0,3.28,3.305" transform="translate(88.632 11.465)" fill="#fff"/>
        <path id="Trazado_582571" data-name="Trazado 582571" d="M73.22,13.931a3.305,3.305,0,1,0-3.278-3.305,3.3,3.3,0,0,0,3.278,3.305" transform="translate(108.329 11.465)" fill="#fff"/>
        <path id="Trazado_582572" data-name="Trazado 582572" d="M85.941,13.931a3.305,3.305,0,1,0-3.283-3.305,3.3,3.3,0,0,0,3.283,3.305" transform="translate(128.024 11.465)" fill="#fff"/>
        <path id="Trazado_582573" data-name="Trazado 582573" d="M3.283,6.611A3.305,3.305,0,1,0,0,3.305,3.29,3.29,0,0,0,3.283,6.611" transform="translate(0 0.001)" fill="#fff"/>
        <path id="Trazado_582574" data-name="Trazado 582574" d="M16,6.611a3.305,3.305,0,1,0-3.278-3.305A3.29,3.29,0,0,0,16,6.611" transform="translate(19.698 0.001)" fill="#fff"/>
        <path id="Trazado_582575" data-name="Trazado 582575" d="M28.717,6.611a3.305,3.305,0,1,0-3.283-3.305,3.291,3.291,0,0,0,3.283,3.305" transform="translate(39.393 0.001)" fill="#fff"/>
        <path id="Trazado_582576" data-name="Trazado 582576" d="M41.43,6.611a3.305,3.305,0,1,0-3.28-3.305,3.292,3.292,0,0,0,3.28,3.305" transform="translate(59.088 0.001)" fill="#fff"/>
        <path id="Trazado_582577" data-name="Trazado 582577" d="M54.145,6.611a3.305,3.305,0,1,0-3.278-3.305,3.292,3.292,0,0,0,3.278,3.305" transform="translate(78.785 0.001)" fill="#fff"/>
        <path id="Trazado_582578" data-name="Trazado 582578" d="M66.867,6.611a3.305,3.305,0,1,0-3.283-3.305,3.29,3.29,0,0,0,3.283,3.305" transform="translate(98.481 0.001)" fill="#fff"/>
        <path id="Trazado_582579" data-name="Trazado 582579" d="M79.584,6.611A3.305,3.305,0,1,0,76.3,3.305a3.288,3.288,0,0,0,3.285,3.305" transform="translate(118.175 0.001)" fill="#fff"/>
        <path id="Trazado_582580" data-name="Trazado 582580" d="M92.295,6.611a3.305,3.305,0,1,0-3.278-3.305,3.291,3.291,0,0,0,3.278,3.305" transform="translate(137.873 0.001)" fill="#fff"/>
      </g>
    </g>
    <g id="Grupo_1222133" data-name="Grupo 1222133" transform="translate(173.91 94.3)">
      <g id="Grupo_700213" data-name="Grupo 700213" clip-path="url(#clip-path-8)">
        <path id="Trazado_582481" data-name="Trazado 582481" d="M91.443,210.917a2.425,2.425,0,1,0,2.42,2.425,2.421,2.421,0,0,0-2.42-2.425" transform="translate(78.614 186.266)" fill="#fff"/>
        <path id="Trazado_582482" data-name="Trazado 582482" d="M78.722,210.917a2.425,2.425,0,1,0,2.425,2.425,2.418,2.418,0,0,0-2.425-2.425" transform="translate(67.384 186.266)" fill="#fff"/>
        <path id="Trazado_582483" data-name="Trazado 582483" d="M66.007,210.917a2.425,2.425,0,1,0,2.425,2.425,2.419,2.419,0,0,0-2.425-2.425" transform="translate(56.153 186.266)" fill="#fff"/>
        <path id="Trazado_582484" data-name="Trazado 582484" d="M53.291,210.917a2.425,2.425,0,1,0,2.422,2.425,2.421,2.421,0,0,0-2.422-2.425" transform="translate(44.924 186.266)" fill="#fff"/>
        <path id="Trazado_582485" data-name="Trazado 582485" d="M40.574,210.917A2.425,2.425,0,1,0,43,213.342a2.423,2.423,0,0,0-2.425-2.425" transform="translate(33.69 186.266)" fill="#fff"/>
        <path id="Trazado_582486" data-name="Trazado 582486" d="M27.858,210.917a2.425,2.425,0,1,0,2.425,2.425,2.424,2.424,0,0,0-2.425-2.425" transform="translate(22.46 186.266)" fill="#fff"/>
        <path id="Trazado_582487" data-name="Trazado 582487" d="M15.142,210.917a2.425,2.425,0,1,0,2.422,2.425,2.424,2.424,0,0,0-2.422-2.425" transform="translate(11.231 186.266)" fill="#fff"/>
        <path id="Trazado_582488" data-name="Trazado 582488" d="M2.425,210.917a2.425,2.425,0,1,0,2.425,2.425,2.421,2.421,0,0,0-2.425-2.425" transform="translate(0 186.266)" fill="#fff"/>
        <path id="Trazado_582489" data-name="Trazado 582489" d="M91.443,223.408a2.423,2.423,0,1,0,2.42,2.425,2.426,2.426,0,0,0-2.42-2.425" transform="translate(78.614 197.297)" fill="#fff"/>
        <path id="Trazado_582490" data-name="Trazado 582490" d="M78.723,223.408a2.423,2.423,0,1,0,2.425,2.425,2.427,2.427,0,0,0-2.425-2.425" transform="translate(67.383 197.297)" fill="#fff"/>
        <path id="Trazado_582491" data-name="Trazado 582491" d="M66.007,223.408a2.423,2.423,0,1,0,2.425,2.425,2.424,2.424,0,0,0-2.425-2.425" transform="translate(56.153 197.297)" fill="#fff"/>
        <path id="Trazado_582492" data-name="Trazado 582492" d="M53.291,223.408a2.423,2.423,0,1,0,2.422,2.425,2.425,2.425,0,0,0-2.422-2.425" transform="translate(44.924 197.297)" fill="#fff"/>
        <path id="Trazado_582493" data-name="Trazado 582493" d="M40.574,223.408A2.423,2.423,0,1,0,43,225.833a2.427,2.427,0,0,0-2.425-2.425" transform="translate(33.69 197.297)" fill="#fff"/>
        <path id="Trazado_582494" data-name="Trazado 582494" d="M27.858,223.408a2.423,2.423,0,1,0,2.425,2.425,2.429,2.429,0,0,0-2.425-2.425" transform="translate(22.46 197.297)" fill="#fff"/>
        <path id="Trazado_582495" data-name="Trazado 582495" d="M15.142,223.408a2.423,2.423,0,1,0,2.422,2.425,2.429,2.429,0,0,0-2.422-2.425" transform="translate(11.231 197.297)" fill="#fff"/>
        <path id="Trazado_582496" data-name="Trazado 582496" d="M2.425,223.408a2.423,2.423,0,1,0,2.425,2.425,2.426,2.426,0,0,0-2.425-2.425" transform="translate(0 197.297)" fill="#fff"/>
        <path id="Trazado_582497" data-name="Trazado 582497" d="M85.083,217.163a2.423,2.423,0,1,0,2.425,2.425,2.428,2.428,0,0,0-2.425-2.425" transform="translate(72.997 191.782)" fill="#fff"/>
        <path id="Trazado_582498" data-name="Trazado 582498" d="M72.367,217.163a2.423,2.423,0,1,0,2.422,2.425,2.429,2.429,0,0,0-2.422-2.425" transform="translate(61.767 191.782)" fill="#fff"/>
        <path id="Trazado_582499" data-name="Trazado 582499" d="M59.649,217.163a2.423,2.423,0,1,0,2.425,2.425,2.423,2.423,0,0,0-2.425-2.425" transform="translate(50.539 191.782)" fill="#fff"/>
        <path id="Trazado_582500" data-name="Trazado 582500" d="M46.934,217.163a2.423,2.423,0,1,0,2.425,2.425,2.426,2.426,0,0,0-2.425-2.425" transform="translate(39.307 191.782)" fill="#fff"/>
        <path id="Trazado_582501" data-name="Trazado 582501" d="M34.218,217.163a2.423,2.423,0,1,0,2.42,2.425,2.426,2.426,0,0,0-2.42-2.425" transform="translate(28.077 191.782)" fill="#fff"/>
        <path id="Trazado_582502" data-name="Trazado 582502" d="M21.5,217.163a2.423,2.423,0,1,0,2.422,2.425,2.426,2.426,0,0,0-2.422-2.425" transform="translate(16.846 191.782)" fill="#fff"/>
        <path id="Trazado_582503" data-name="Trazado 582503" d="M8.784,217.163a2.423,2.423,0,1,0,2.422,2.425,2.426,2.426,0,0,0-2.422-2.425" transform="translate(5.616 191.782)" fill="#fff"/>
        <path id="Trazado_582504" data-name="Trazado 582504" d="M85.083,229.653a2.425,2.425,0,1,0,2.425,2.425,2.428,2.428,0,0,0-2.425-2.425" transform="translate(72.997 202.812)" fill="#fff"/>
        <path id="Trazado_582505" data-name="Trazado 582505" d="M72.367,229.653a2.425,2.425,0,1,0,2.422,2.425,2.429,2.429,0,0,0-2.422-2.425" transform="translate(61.767 202.812)" fill="#fff"/>
        <path id="Trazado_582506" data-name="Trazado 582506" d="M59.649,229.653a2.425,2.425,0,1,0,2.425,2.425,2.423,2.423,0,0,0-2.425-2.425" transform="translate(50.539 202.812)" fill="#fff"/>
        <path id="Trazado_582507" data-name="Trazado 582507" d="M46.934,229.653a2.425,2.425,0,1,0,2.425,2.425,2.426,2.426,0,0,0-2.425-2.425" transform="translate(39.307 202.812)" fill="#fff"/>
        <path id="Trazado_582508" data-name="Trazado 582508" d="M34.218,229.653a2.425,2.425,0,1,0,2.42,2.425,2.426,2.426,0,0,0-2.42-2.425" transform="translate(28.077 202.812)" fill="#fff"/>
        <path id="Trazado_582509" data-name="Trazado 582509" d="M21.5,229.653a2.425,2.425,0,1,0,2.422,2.425,2.426,2.426,0,0,0-2.422-2.425" transform="translate(16.846 202.812)" fill="#fff"/>
        <path id="Trazado_582510" data-name="Trazado 582510" d="M8.784,229.653a2.425,2.425,0,1,0,2.422,2.425,2.426,2.426,0,0,0-2.422-2.425" transform="translate(5.616 202.812)" fill="#fff"/>
        <path id="Trazado_582511" data-name="Trazado 582511" d="M91.443,236.973a2.423,2.423,0,1,0,2.42,2.425,2.423,2.423,0,0,0-2.42-2.425" transform="translate(78.614 209.277)" fill="#fff"/>
        <path id="Trazado_582512" data-name="Trazado 582512" d="M78.723,236.973a2.423,2.423,0,1,0,2.425,2.425,2.422,2.422,0,0,0-2.425-2.425" transform="translate(67.383 209.277)" fill="#fff"/>
        <path id="Trazado_582513" data-name="Trazado 582513" d="M66.007,236.973a2.423,2.423,0,1,0,2.425,2.425,2.421,2.421,0,0,0-2.425-2.425" transform="translate(56.153 209.277)" fill="#fff"/>
        <path id="Trazado_582514" data-name="Trazado 582514" d="M53.291,236.973a2.423,2.423,0,1,0,2.422,2.425,2.422,2.422,0,0,0-2.422-2.425" transform="translate(44.924 209.277)" fill="#fff"/>
        <path id="Trazado_582515" data-name="Trazado 582515" d="M40.574,236.973A2.423,2.423,0,1,0,43,239.4a2.424,2.424,0,0,0-2.425-2.425" transform="translate(33.69 209.277)" fill="#fff"/>
        <path id="Trazado_582516" data-name="Trazado 582516" d="M27.858,236.973a2.423,2.423,0,1,0,2.425,2.425,2.425,2.425,0,0,0-2.425-2.425" transform="translate(22.46 209.277)" fill="#fff"/>
        <path id="Trazado_582517" data-name="Trazado 582517" d="M15.142,236.973a2.423,2.423,0,1,0,2.422,2.425,2.425,2.425,0,0,0-2.422-2.425" transform="translate(11.231 209.277)" fill="#fff"/>
        <path id="Trazado_582518" data-name="Trazado 582518" d="M2.425,236.973A2.423,2.423,0,1,0,4.851,239.4a2.423,2.423,0,0,0-2.425-2.425" transform="translate(0 209.277)" fill="#fff"/>
        <g id="Grupo_845115" data-name="Grupo 845115">
          <path id="Trazado_582519" data-name="Trazado 582519" d="M239.153,0a3.289,3.289,0,1,0,3.292,3.286A3.287,3.287,0,0,0,239.153,0" transform="translate(208.295)" fill="#fff"/>
          <path id="Trazado_582520" data-name="Trazado 582520" d="M221.888,0a3.289,3.289,0,1,0,3.292,3.286A3.287,3.287,0,0,0,221.888,0" transform="translate(193.048)" fill="#fff"/>
          <path id="Trazado_582521" data-name="Trazado 582521" d="M204.62,0a3.289,3.289,0,1,0,3.292,3.286A3.289,3.289,0,0,0,204.62,0" transform="translate(177.8)" fill="#fff"/>
          <path id="Trazado_582522" data-name="Trazado 582522" d="M187.352,0a3.289,3.289,0,1,0,3.292,3.286A3.285,3.285,0,0,0,187.352,0" transform="translate(162.554)" fill="#fff"/>
          <path id="Trazado_582523" data-name="Trazado 582523" d="M170.093,0a3.289,3.289,0,1,0,3.286,3.286A3.287,3.287,0,0,0,170.093,0" transform="translate(147.307)" fill="#fff"/>
          <path id="Trazado_582524" data-name="Trazado 582524" d="M152.827,0a3.289,3.289,0,1,0,3.292,3.286A3.287,3.287,0,0,0,152.827,0" transform="translate(132.059)" fill="#fff"/>
          <path id="Trazado_582525" data-name="Trazado 582525" d="M230.521,8.478a3.292,3.292,0,1,0,3.29,3.292,3.287,3.287,0,0,0-3.29-3.292" transform="translate(200.672 7.487)" fill="#fff"/>
          <path id="Trazado_582526" data-name="Trazado 582526" d="M213.255,8.478a3.292,3.292,0,1,0,3.29,3.292,3.288,3.288,0,0,0-3.29-3.292" transform="translate(185.424 7.487)" fill="#fff"/>
          <path id="Trazado_582527" data-name="Trazado 582527" d="M195.985,8.478a3.292,3.292,0,1,0,3.292,3.292,3.287,3.287,0,0,0-3.292-3.292" transform="translate(170.178 7.487)" fill="#fff"/>
          <path id="Trazado_582528" data-name="Trazado 582528" d="M178.726,8.478a3.292,3.292,0,1,0,3.284,3.292,3.287,3.287,0,0,0-3.284-3.292" transform="translate(154.931 7.487)" fill="#fff"/>
          <path id="Trazado_582529" data-name="Trazado 582529" d="M161.46,8.478a3.292,3.292,0,1,0,3.286,3.292,3.288,3.288,0,0,0-3.286-3.292" transform="translate(139.683 7.487)" fill="#fff"/>
          <path id="Trazado_582530" data-name="Trazado 582530" d="M239.153,18.415a3.289,3.289,0,1,0,3.292,3.292,3.288,3.288,0,0,0-3.292-3.292" transform="translate(208.295 16.263)" fill="#fff"/>
          <path id="Trazado_582531" data-name="Trazado 582531" d="M221.888,18.415a3.289,3.289,0,1,0,3.292,3.292,3.288,3.288,0,0,0-3.292-3.292" transform="translate(193.048 16.263)" fill="#fff"/>
          <path id="Trazado_582532" data-name="Trazado 582532" d="M204.62,18.415a3.289,3.289,0,1,0,3.292,3.292,3.29,3.29,0,0,0-3.292-3.292" transform="translate(177.8 16.263)" fill="#fff"/>
          <path id="Trazado_582533" data-name="Trazado 582533" d="M187.352,18.415a3.289,3.289,0,1,0,3.292,3.292,3.287,3.287,0,0,0-3.292-3.292" transform="translate(162.554 16.263)" fill="#fff"/>
          <path id="Trazado_582534" data-name="Trazado 582534" d="M170.093,18.415a3.289,3.289,0,1,0,3.286,3.292,3.288,3.288,0,0,0-3.286-3.292" transform="translate(147.307 16.263)" fill="#fff"/>
          <path id="Trazado_582535" data-name="Trazado 582535" d="M152.827,18.415a3.289,3.289,0,1,0,3.292,3.292,3.288,3.288,0,0,0-3.292-3.292" transform="translate(132.059 16.263)" fill="#fff"/>
        </g>
        <path id="Trazado_582536" data-name="Trazado 582536" d="M299.623,32.226a21.27,21.27,0,1,0,21.27-21.27A21.265,21.265,0,0,0,299.623,32.226Z" transform="translate(264.604 9.676)" fill="none" stroke="#fff" stroke-linecap="round" stroke-linejoin="round" stroke-width="1.319"/>
        <path id="Trazado_582537" data-name="Trazado 582537" d="M427.369,166.891a21.27,21.27,0,1,0,21.272-21.264A21.274,21.274,0,0,0,427.369,166.891Z" transform="translate(156.18 145.607)" fill="none" stroke="#fff" stroke-linecap="round" stroke-linejoin="round" stroke-width="1.319"/>
        <path id="Trazado_582538" data-name="Trazado 582538" d="M286.12,120.952a9.2,9.2,0,1,0,9.2-9.2A9.2,9.2,0,0,0,286.12,120.952Z" transform="translate(146.224 298.158)" fill="none" stroke="#fff" stroke-linecap="round" stroke-linejoin="round" stroke-width="1.319"/>
        <path id="Trazado_582539" data-name="Trazado 582539" d="M585.575,56.217a9.2,9.2,0,1,0,9.2-9.2A9.2,9.2,0,0,0,585.575,56.217Z" transform="translate(579.135 -21.568)" fill="none" stroke="#fff" stroke-linecap="round" stroke-linejoin="round" stroke-width="1.319"/>
        <path id="Trazado_582540" data-name="Trazado 582540" d="M415.772,21.28a6.136,6.136,0,1,0,6.137-6.137A6.136,6.136,0,0,0,415.772,21.28Z" transform="translate(367.178 13.373)" fill="none" stroke="#fff" stroke-linecap="round" stroke-linejoin="round" stroke-width="1.319"/>
        <path id="Trazado_582541" data-name="Trazado 582541" d="M36.029,25.846a9.2,9.2,0,1,0,9.2-9.2A9.2,9.2,0,0,0,36.029,25.846Z" transform="translate(38.59 25.254)" fill="none" stroke="#fff" stroke-linecap="round" stroke-linejoin="round" stroke-width="1.319"/>
        <path id="Trazado_582542" data-name="Trazado 582542" d="M645.422,215.082a6.135,6.135,0,1,0,6.137-6.135A6.136,6.136,0,0,0,645.422,215.082Z" transform="translate(547.987 193.862)" fill="none" stroke="#fff" stroke-linecap="round" stroke-linejoin="round" stroke-width="1.319"/>
      </g>
    </g>
  </g>
</svg>
